<?xml version="1.0" encoding="UTF-8" standalone="no"?>
<!-- Generator: Adobe Illustrator 17.1.0, SVG Export Plug-In . SVG Version: 6.00 Build 0)  -->

<svg
   version="1.1"
   id="bitpay_wordmark"
   x="0px"
   y="0px"
   viewBox="0 0 378.70002 133.10001"
   enable-background="new 0 0 525.8 279.3"
   xml:space="preserve"
   sodipodi:docname="bitpay-logo.svg"
   width="378.70001"
   height="133.10001"
   inkscape:version="1.1.2 (0a00cf5339, 2022-02-04, custom)"
   xmlns:inkscape="http://www.inkscape.org/namespaces/inkscape"
   xmlns:sodipodi="http://sodipodi.sourceforge.net/DTD/sodipodi-0.dtd"
   xmlns="http://www.w3.org/2000/svg"
   xmlns:svg="http://www.w3.org/2000/svg"><defs
   id="defs14" /><sodipodi:namedview
   id="namedview12"
   pagecolor="#ffffff"
   bordercolor="#666666"
   borderopacity="1.0"
   inkscape:pageshadow="2"
   inkscape:pageopacity="0.0"
   inkscape:pagecheckerboard="0"
   showgrid="false"
   fit-margin-top="0"
   fit-margin-left="0"
   fit-margin-right="0"
   fit-margin-bottom="0"
   inkscape:zoom="2.0711298"
   inkscape:cx="189.75151"
   inkscape:cy="66.630301"
   inkscape:window-width="847"
   inkscape:window-height="1398"
   inkscape:window-x="1707"
   inkscape:window-y="18"
   inkscape:window-maximized="1"
   inkscape:current-layer="bitpay_wordmark" />
<g
   id="g9"
   transform="translate(-73.6,-73.1)">
	<path
   id="y_2_"
   fill="#002855"
   d="m 452.3,104.6 h -19.7 l -11.4,48.1 v 0 l -1.6,6.6 c -1.1,0.3 -2.2,0.6 -3.3,0.8 -2,0.4 -4.1,0.6 -6.3,0.6 -2.5,0 -4.5,-0.4 -6,-1.1 -1.4,-0.7 -2.5,-1.7 -3.1,-3.1 -0.6,-1.3 -0.8,-2.9 -0.7,-4.7 0.1,-1.8 0.5,-3.8 1,-5.8 l 6,-25 3.9,-16.6 v 0 H 391 l -9.1,38.4 c -1.1,4.6 -1.7,9 -1.9,13.2 -0.2,4.2 0.5,7.8 1.9,11.1 1.4,3.2 3.9,5.7 7.3,7.6 3.4,1.9 8.3,2.8 14.5,2.8 4.3,0 8.1,-0.4 11.3,-1.1 0.1,0 0.3,-0.1 0.4,-0.1 v 0 c -0.9,4 -2.7,7.2 -5.5,9.7 -2.9,2.5 -7.1,3.8 -12.7,3.8 -2.4,0 -4.6,-0.1 -6.6,-0.4 l -3.9,16.3 c 2.6,0.3 5.5,0.5 8.7,0.5 6,0 11.2,-0.7 15.7,-2 4.5,-1.4 8.3,-3.4 11.6,-6.2 3.2,-2.8 5.9,-6.3 8.1,-10.4 2.2,-4.2 3.9,-9.1 5.2,-14.9 l 13.6,-57.2 c 0,0 0,0 0,0 z" />
	<path
   id="a_2_"
   fill="#002855"
   d="m 369.8,145.7 c -1.2,5 -1.6,10.1 -1.1,15.1 0.5,5.1 2.5,12.8 4.4,16.7 h -19 c -2.3,-3.9 -2.2,-5.8 -2.7,-7 -2.5,2 -5.2,3.7 -8.2,5 -3,1.3 -6.3,2 -10.1,2 -4.4,0 -8.2,-0.8 -11.3,-2.3 -3.1,-1.5 -5.7,-3.6 -7.7,-6.2 -2,-2.6 -3.4,-5.6 -4.3,-9.1 -0.9,-3.5 -1.3,-7.2 -1.3,-11.2 0,-6.1 1.1,-11.8 3.2,-17.2 2.2,-5.4 5.2,-10.1 9,-14.1 3.8,-4 13.1,-12.9 28.3,-12.9 6.6,0 15.4,0 30.5,0 z m -13.9,-24.5 c -9.2,0 -10.9,0 -14.7,1.9 -2.7,1.4 -4.9,3.5 -6.8,5.9 -1.9,2.4 -3.5,5.2 -4.6,8.4 -1.1,3.2 -1.7,6.5 -1.7,9.9 0,4.2 0.7,7.6 2.1,10.1 1.4,2.5 4,3.7 7.8,3.7 2,0 3.9,-0.4 5.5,-1.2 1.6,-0.8 3.4,-2.1 5.2,-4 0.2,-2.2 0.5,-4.5 0.9,-6.9 0.4,-2.4 0.9,-4.7 1.3,-6.7 l 5,-21.1" />
	<path
   id="p_2_"
   fill="#002855"
   d="m 303.1,133.5 c 0,6.5 -1.1,12.4 -3.2,17.8 -2.1,5.4 -5.1,10 -8.9,13.9 -3.8,3.9 -8.3,6.9 -13.6,9.1 -5.3,2.2 -11,3.3 -17.2,3.3 -3,0 -6,-0.3 -9.1,-0.8 l -6,24.1 h -19.7 l 22.9,-96.2 c 3.3,0 20.9,0 26.3,0 5,0 9.3,0.8 12.8,2.3 3.6,1.5 6.5,3.6 8.9,6.2 2.3,2.6 4,5.7 5.1,9.2 1.2,3.4 1.7,7.1 1.7,11.1 z m -48.3,27.3 c 1.5,0.4 3.4,0.5 5.6,0.5 3.5,0 6.6,-0.6 9.5,-1.9 2.8,-1.3 5.3,-3.1 7.3,-5.4 2,-2.3 3.5,-5.1 4.7,-8.3 1.1,-3.2 1.7,-6.8 1.7,-10.7 0,-3.8 -0.8,-7.1 -2.5,-9.7 -1.7,-2.7 -4.6,-4.1 -8.8,-4.1 -2.9,0 -7.8,0 -7.8,0 z" />
	<path
   id="t_2_"
   fill="#002855"
   d="m 213.4,160.8 c -2.5,0 -4.5,-0.4 -6,-1.1 -1.4,-0.7 -2.5,-1.7 -3.1,-3.1 -0.6,-1.3 -0.8,-2.9 -0.7,-4.7 0.1,-1.8 0.5,-3.8 1,-5.8 l 6,-25 H 233 l 4.1,-16.6 h -22.5 l 5.2,-21 -21,3.3 -13.3,56.2 c -1.1,4.6 -1.7,9 -1.9,13.2 -0.2,4.2 0.5,7.8 1.9,11.1 1.4,3.2 3.9,5.7 7.3,7.6 3.4,1.9 8.3,2.8 14.5,2.8 4.3,0 8.1,-0.4 11.3,-1.1 0.3,-0.1 0.8,-0.2 1.1,-0.3 l 4.1,-17.1 c -1.4,0.5 -2.8,0.8 -4.1,1 -2,0.4 -4.1,0.6 -6.3,0.6 z" />
	<polygon
   id="i_bottom_6_"
   fill="#002855"
   points="165.6,177.6 182.9,104.6 163.3,104.6 145.9,177.6 " />
	<polygon
   id="i_top_2_"
   fill="#002855"
   points="168.3,83.5 165.3,96.2 185,96.2 188,83.5 " />
	<path
   id="b_2_"
   fill="#002855"
   d="m 119.7,104.7 c 4.2,0 7.9,0.8 11,2.3 3.1,1.5 5.6,3.5 7.7,6.1 2,2.6 3.5,5.6 4.5,9 1,3.4 1.5,7.1 1.5,11.1 0,6.1 -1.1,11.8 -3.4,17.3 -2.3,5.4 -5.3,10.2 -9.2,14.2 -3.9,4 -8.5,7.2 -13.8,9.5 -5.3,2.3 -11,3.5 -17.2,3.5 -0.8,0 -2.2,0 -4.2,-0.1 -2,0 -4.3,-0.2 -6.8,-0.6 -2.6,-0.4 -5.3,-0.9 -8.1,-1.6 -2.9,-0.7 -5.6,-1.7 -8.1,-2.9 l 22.9,-96.2 20.5,-3.2 -8.1,34.1 c 1.8,-0.8 3.4,-1.4 5.2,-1.8 1.7,-0.5 3.6,-0.7 5.6,-0.7 z m -17.2,56.6 c 3.1,0 6,-0.7 8.7,-2.3 2.7,-1.5 5.1,-3.5 7.1,-6 2,-2.5 3.6,-5.4 4.7,-8.5 1.1,-3.2 1.7,-6.5 1.7,-9.9 0,-4.2 -0.7,-7.5 -2.1,-9.9 -1.4,-2.4 -4.3,-3.5 -8.1,-3.5 -1.2,0 -2.5,0.1 -4.5,0.6 -2,0.4 -3.7,1.4 -5.3,2.8 l -8.6,36.3 c 2.6,0.4 3.4,0.5 4.1,0.5 0.5,-0.1 1.3,-0.1 2.3,-0.1 z" />
</g>
</svg>
